# xmcd CD database file
# Copyright (C) 1993-1998 Ti Kan
#
# Track frame offsets:
#	150
#	15950
#	31157
#	45709
#	63091
#	79758
#	95292
#	112176
#	128728
#	144222
#	160894
#	177353
#	190975
#	206114
#	220963
#	237973
#	258580
#	275409
#	289519
#	305379
#
# Disc length: 4287 seconds
#
# Revision: 1
# Processed by: cddbd v1.4b41PL1 Copyright (c) Steve Scherf et al.
# Submitted via: CDValet v3.31 - Copyright (c) 1997 Greg Leichner
#
DISCID=1610bd14
DTITLE="Country Hits" - "Mixed Male Artist #1"
DYEAR=1900
DGENRE=
TTITLE0="Nobody Knows (Kevin Sharp)"
TTITLE1="She's Sure Taking It Well (Kevin Sharp)"
TTITLE2="Not Enough Hours In the Night (Doug Supernaw)"
TTITLE3="Livin On Love (alan Jackson)"
TTITLE4="Me and You (Kenny Chesney)"
TTITLE5="She Got It All (Kenny Chesney)"
TTITLE6="A Chance (Kenny Chesney)"
TTITLE7="I Close My Eyes (Kenny Chesney)"
TTITLE8="Goodbye Says It All (Black Hawk)"
TTITLE9="Every Once In A While (Black Hawk)"
TTITLE10="I Sure Can Smell The Rain (Black Hawk)"
TTITLE11="Every Light In The House (Trace Adkins)"
TTITLE12="Politics, Religion And Her (Sammy Kershaw)"
TTITLE13="She Can't Say I Didn't Cry (Rick Trevino)"
TTITLE14="Dust On the Bottle (David Lee Murphy)"
TTITLE15="John Deer Green (Joe Diffie)"
TTITLE16="Ships That Don't Come In (Joe Diffie)"
TTITLE17="Third Rock From The Sun (Joe Diffie)"
TTITLE18="So Help Me Girl (Joe Diffie)"
TTITLE19="Pickup Man (Joe Diffie)"
EXTD=
EXTT0=
EXTT1=
EXTT2=
EXTT3=
EXTT4=
EXTT5=
EXTT6=
EXTT7=
EXTT8=
EXTT9=
EXTT10=
EXTT11=
EXTT12=
EXTT13=
EXTT14=
EXTT15=
EXTT16=
EXTT17=
EXTT18=
EXTT19=
PLAYORDER=
